<?xml version="1.0" encoding="UTF-8"?>
<!DOCTYPE svg PUBLIC "-//W3C//DTD SVG 1.1//EN" "http://www.w3.org/Graphics/SVG/1.1/DTD/svg11.dtd">
<!-- Creator: CorelDRAW X8 -->
<svg xmlns="http://www.w3.org/2000/svg" xml:space="preserve" width="1.87285in" height="0.343059in" version="1.1" shape-rendering="geometricPrecision" text-rendering="geometricPrecision" image-rendering="optimizeQuality" fill-rule="evenodd" clip-rule="evenodd"
viewBox="0 0 1165 213"
 xmlns:xlink="http://www.w3.org/1999/xlink">
 <g id="Layer_x0020_1">
  <metadata id="CorelCorpID_0Corel-Layer"/>
  <rect fill="none" stroke="#373435" stroke-width="8.63641" x="4" y="4" width="1156" height="205" rx="13" ry="12"/>
  <polygon fill="#373435" fill-rule="nonzero" points="173,63 115,63 115,181 89,181 89,63 31,63 31,36 173,36 "/>
  <path id="1" fill="#373435" fill-rule="nonzero" d="M331 85c0,6 -1,11 -3,16 -1,5 -3,9 -6,13 -2,3 -5,6 -8,9 -4,2 -7,5 -11,6 -3,2 -7,3 -11,4 -3,1 -7,1 -10,1l55 47 -41 0 -55 -47 -19 0 0 -26 60 0c3,-1 6,-1 9,-2 3,-2 5,-3 7,-5 2,-2 4,-4 5,-7 1,-2 1,-5 1,-9l0 -17c0,-1 0,-2 0,-3 -1,-1 -1,-1 -2,-2 0,0 -1,0 -1,0 -1,0 -2,0 -2,0l-87 0 0 118 -26 0 0 -131c0,-2 0,-4 1,-6 0,-1 1,-3 2,-4 2,-1 3,-2 5,-3 1,0 3,-1 5,-1l100 0c6,0 11,1 15,3 4,3 7,5 10,8 2,4 4,7 5,11 1,4 2,7 2,10l0 17z"/>
  <path id="2" fill="#373435" fill-rule="nonzero" d="M493 181l-27 0 0 -35 -92 0 0 35 -26 0 0 -72c0,-11 1,-21 5,-29 4,-9 9,-17 15,-23 7,-7 14,-12 23,-15 9,-4 19,-6 29,-6l60 0c1,0 3,1 5,1 1,1 3,2 4,3 1,1 2,3 3,4 0,2 1,4 1,6l0 131zm-119 -62l92 0 0 -56 -46 0c-1,0 -2,0 -5,0 -2,0 -5,1 -9,2 -3,1 -7,2 -11,4 -3,2 -7,5 -10,8 -3,4 -6,8 -8,13 -2,5 -3,11 -3,19l0 10z"/>
  <path id="3" fill="#373435" fill-rule="nonzero" d="M662 170c0,2 -1,4 -1,5 -1,2 -2,3 -3,5 -1,1 -3,2 -4,2 -2,1 -4,1 -6,1 -1,0 -3,0 -4,0 -2,-1 -4,-2 -5,-3l-96 -101 0 102 -26 0 0 -134c0,-2 0,-5 2,-7 1,-2 3,-4 6,-5 2,-1 5,-1 7,0 3,0 5,1 7,3l96 101 0 -103 27 0 0 134z"/>
  <polygon id="4" fill="none" fill-rule="nonzero" points="773,181 746,181 746,36 773,36 "/>
  <path id="5" fill="none" fill-rule="nonzero" d="M942 170c0,2 -1,4 -1,5 -1,2 -2,3 -3,5 -1,1 -3,2 -4,2 -2,1 -4,1 -5,1 -2,0 -4,0 -5,0 -2,-1 -3,-2 -5,-3l-96 -101 0 102 -26 0 0 -134c0,-2 1,-5 2,-7 2,-2 3,-4 6,-5 2,-1 5,-1 8,0 2,0 4,1 6,3l96 101 0 -103 27 0 0 134z"/>
  <path id="6" fill="none" fill-rule="nonzero" d="M1096 181l-95 0c-3,0 -5,0 -8,0 -3,-1 -6,-2 -8,-3 -3,-1 -6,-3 -8,-5 -3,-2 -5,-4 -7,-7 -2,-3 -3,-6 -5,-9 -1,-4 -1,-8 -1,-13l0 -71c0,-2 0,-5 1,-8 0,-2 1,-5 2,-8 1,-3 3,-5 5,-8 2,-2 4,-4 7,-6 3,-2 6,-4 10,-5 3,-1 7,-2 12,-2l95 0 0 27 -95 0c-4,0 -6,0 -8,2 -2,2 -3,5 -3,8l0 71c0,4 1,6 3,8 2,2 4,3 8,3l95 0 0 26z"/>
  <path id="7" fill="none" fill-rule="nonzero" d="M1133 168c0,2 -1,4 -1,5 -1,2 -2,3 -3,4 -1,2 -3,3 -4,3 -2,1 -4,1 -5,1 -2,0 -4,0 -5,-1 -2,0 -3,-1 -5,-3 -1,-1 -2,-2 -2,-4 -1,-1 -1,-3 -1,-5 0,-2 0,-3 1,-5 0,-1 1,-3 2,-4 2,-1 3,-2 5,-3 1,-1 3,-1 5,-1 1,0 3,0 5,1 1,1 3,2 4,3 1,1 2,3 3,4 0,2 1,3 1,5z"/>
  <polygon id="8" fill="none" fill-rule="nonzero" stroke="#373435" stroke-width="4.31698" points="173,63 115,63 115,181 89,181 89,63 31,63 31,36 173,36 "/>
  <path id="9" fill="none" fill-rule="nonzero" stroke="#373435" stroke-width="4.31698" d="M331 85c0,6 -1,11 -3,16 -1,5 -3,9 -6,13 -2,3 -5,6 -8,9 -4,2 -7,5 -11,6 -3,2 -7,3 -11,4 -3,1 -7,1 -10,1l55 47 -41 0 -55 -47 -19 0 0 -26 60 0c3,-1 6,-1 9,-2 3,-2 5,-3 7,-5 2,-2 4,-4 5,-7 1,-2 1,-5 1,-9l0 -17c0,-1 0,-2 0,-3 -1,-1 -1,-1 -2,-2 0,0 -1,0 -1,0 -1,0 -2,0 -2,0l-87 0 0 118 -26 0 0 -131c0,-2 0,-4 1,-6 0,-1 1,-3 2,-4 2,-1 3,-2 5,-3 1,0 3,-1 5,-1l100 0c6,0 11,1 15,3 4,3 7,5 10,8 2,4 4,7 5,11 1,4 2,7 2,10l0 17z"/>
  <path id="10" fill="none" fill-rule="nonzero" stroke="#373435" stroke-width="4.31698" d="M493 181l-27 0 0 -35 -92 0 0 35 -26 0 0 -72c0,-11 1,-21 5,-29 4,-9 9,-17 15,-23 7,-7 14,-12 23,-15 9,-4 19,-6 29,-6l60 0c1,0 3,1 5,1 1,1 3,2 4,3 1,1 2,3 3,4 0,2 1,4 1,6l0 131zm-119 -62l92 0 0 -56 -46 0c-1,0 -2,0 -5,0 -2,0 -5,1 -9,2 -3,1 -7,2 -11,4 -3,2 -7,5 -10,8 -3,4 -6,8 -8,13 -2,5 -3,11 -3,19l0 10z"/>
  <path id="11" fill="none" fill-rule="nonzero" stroke="#373435" stroke-width="4.31698" d="M662 170c0,2 -1,4 -1,5 -1,2 -2,3 -3,5 -1,1 -3,2 -4,2 -2,1 -4,1 -6,1 -1,0 -3,0 -4,0 -2,-1 -4,-2 -5,-3l-96 -101 0 102 -26 0 0 -134c0,-2 0,-5 2,-7 1,-2 3,-4 6,-5 2,-1 5,-1 7,0 3,0 5,1 7,3l96 101 0 -103 27 0 0 134z"/>
  <polygon id="12" fill="none" fill-rule="nonzero" stroke="#373435" stroke-width="4.31698" points="773,181 746,181 746,36 773,36 "/>
  <path id="13" fill="none" fill-rule="nonzero" stroke="#373435" stroke-width="4.31698" d="M942 170c0,2 -1,4 -1,5 -1,2 -2,3 -3,5 -1,1 -3,2 -4,2 -2,1 -4,1 -5,1 -2,0 -4,0 -5,0 -2,-1 -3,-2 -5,-3l-96 -101 0 102 -26 0 0 -134c0,-2 1,-5 2,-7 2,-2 3,-4 6,-5 2,-1 5,-1 8,0 2,0 4,1 6,3l96 101 0 -103 27 0 0 134z"/>
  <path id="14" fill="none" fill-rule="nonzero" stroke="#373435" stroke-width="4.31698" d="M1096 181l-95 0c-3,0 -5,0 -8,0 -3,-1 -6,-2 -8,-3 -3,-1 -6,-3 -8,-5 -3,-2 -5,-4 -7,-7 -2,-3 -3,-6 -5,-9 -1,-4 -1,-8 -1,-13l0 -71c0,-2 0,-5 1,-8 0,-2 1,-5 2,-8 1,-3 3,-5 5,-8 2,-2 4,-4 7,-6 3,-2 6,-4 10,-5 3,-1 7,-2 12,-2l95 0 0 27 -95 0c-4,0 -6,0 -8,2 -2,2 -3,5 -3,8l0 71c0,4 1,6 3,8 2,2 4,3 8,3l95 0 0 26z"/>
  <path id="15" fill="none" fill-rule="nonzero" stroke="#373435" stroke-width="4.31698" d="M1133 168c0,2 -1,4 -1,5 -1,2 -2,3 -3,4 -1,2 -3,3 -4,3 -2,1 -4,1 -5,1 -2,0 -4,0 -5,-1 -2,0 -3,-1 -5,-3 -1,-1 -2,-2 -2,-4 -1,-1 -1,-3 -1,-5 0,-2 0,-3 1,-5 0,-1 1,-3 2,-4 2,-1 3,-2 5,-3 1,-1 3,-1 5,-1 1,0 3,0 5,1 1,1 3,2 4,3 1,1 2,3 3,4 0,2 1,3 1,5z"/>
 </g>
</svg>
